<svg version="1.1" id="Layer_1" xmlns="http://www.w3.org/2000/svg" xmlns:xlink="http://www.w3.org/1999/xlink" x="0px" y="0px"
	 width="100%" viewBox="0 0 864 864" enable-background="new 0 0 864 864" xml:space="preserve">
<path fill="#BA2547" opacity="1.000000" stroke="none" 
	d="
M394.000000,865.000000 
	C262.666718,865.000000 131.833405,865.000000 1.000088,865.000000 
	C1.000059,577.000122 1.000059,289.000244 1.000029,1.000281 
	C288.999786,1.000187 576.999573,1.000187 864.999512,1.000094 
	C864.999695,288.999695 864.999695,576.999390 864.999878,864.999512 
	C708.166687,865.000000 551.333313,865.000000 394.000000,865.000000 
M143.578522,445.120148 
	C143.755920,445.384277 144.001328,445.543854 144.595215,446.233429 
	C148.400787,448.089294 152.086609,451.199951 156.033356,451.576599 
	C170.562531,452.963165 183.937149,449.149780 194.652512,438.940857 
	C203.774277,430.250214 212.310379,420.928772 220.863235,411.662689 
	C226.487930,405.569000 231.701828,399.094574 237.064911,392.761230 
	C245.963669,382.252594 254.688461,371.590149 263.846344,361.313080 
	C265.572937,359.375458 268.981232,357.942169 271.606537,357.953064 
	C298.245575,358.063477 324.885071,358.894928 351.520599,358.761078 
	C371.594635,358.660187 391.245239,361.293671 410.742615,365.553375 
	C419.766785,367.524902 428.674316,370.030304 438.456940,372.501343 
	C433.696716,378.603882 429.821686,383.962006 425.545013,388.977600 
	C414.779724,401.602936 404.266907,414.486511 392.839294,426.492188 
	C381.054413,438.873230 368.107208,450.138702 356.027100,462.249908 
	C334.504944,483.827576 313.217194,505.639679 291.907562,527.428223 
	C284.692444,534.805481 277.697083,542.398071 270.619293,549.909241 
	C247.338226,574.615723 224.223648,599.481628 200.732468,623.986572 
	C185.703354,639.664307 172.130386,656.382568 161.021286,675.057251 
	C158.399246,679.465027 155.947037,683.973877 153.416702,688.436157 
	C153.909531,688.815979 154.402359,689.195740 154.895203,689.575500 
	C156.880402,687.541931 159.211075,685.741882 160.777496,683.425110 
	C163.848206,678.883484 166.452652,674.029175 169.321426,669.348022 
	C180.613632,650.921631 195.302628,635.277161 210.131104,619.765320 
	C222.327637,607.006775 234.793167,594.503845 246.910339,581.671265 
	C267.816345,559.530884 288.094727,536.779297 309.463715,515.099548 
	C334.821686,489.372681 361.207184,464.661804 386.840057,439.201202 
	C398.862122,427.260040 410.392487,414.798523 421.702942,402.176086 
	C428.114441,395.020874 433.837189,387.212189 439.464752,379.405609 
	C442.447845,375.267517 445.299255,373.976562 450.269653,376.031708 
	C459.955933,380.036804 469.897339,383.422882 479.714813,387.113861 
	C483.725586,388.621674 486.631561,391.097260 488.763550,395.116699 
	C496.107666,408.962738 507.081665,419.122772 521.685303,425.002045 
	C525.559021,426.561523 528.643616,427.913666 527.765503,432.949188 
	C527.618042,433.794952 529.005981,434.908508 529.684509,435.898315 
	C530.467285,435.004517 531.559753,434.228119 531.954346,433.187195 
	C532.445679,431.891113 532.361145,430.376678 532.580872,428.475586 
	C546.530518,431.316284 559.606689,429.220062 572.964844,423.702057 
	C572.964844,426.879608 572.964905,429.179718 572.964905,431.479858 
	C572.965271,512.639587 572.963745,593.799255 572.969421,674.958984 
	C572.969910,681.799072 573.095337,681.924683 580.007263,681.926941 
	C610.004700,681.936646 640.002075,681.933472 669.999512,681.930603 
	C678.117859,681.929810 678.122620,681.922668 678.122681,673.544678 
	C678.123596,550.721863 678.121155,427.899078 678.136230,305.076294 
	C678.136536,302.416656 678.289612,299.754456 678.446960,297.097931 
	C678.766174,291.709259 677.485962,290.288696 672.001160,290.282623 
	C653.169434,290.261810 634.337708,290.297821 615.506042,290.263458 
	C603.343567,290.241241 591.180176,290.206604 579.019409,290.025757 
	C574.674622,289.961151 572.405823,291.366028 572.914368,296.121552 
	C573.208191,298.869812 572.967712,301.675232 572.967712,305.097565 
	C547.169861,294.670746 523.735291,297.338623 503.333160,315.346252 
	C483.135132,333.173798 477.515778,356.170807 483.337463,382.605286 
	C471.181702,378.068726 459.965057,373.882660 447.931702,369.391815 
	C475.137848,339.865723 501.075745,310.742004 524.145935,279.049713 
	C518.777222,282.307129 513.770142,286.011902 509.761566,290.590820 
	C495.658997,306.699982 481.981873,323.180725 467.976440,339.376129 
	C460.478180,348.046814 452.488312,356.294067 445.048737,365.012634 
	C442.936096,367.488495 441.129913,368.207153 438.238220,367.161682 
	C436.525116,366.542328 434.697632,366.247162 432.940186,365.741486 
	C409.550781,359.010773 385.714264,354.399414 361.416626,353.499756 
	C333.304230,352.458832 305.148071,352.597015 277.010895,352.227051 
	C275.581329,352.208252 274.151306,352.224640 272.220276,352.224640 
	C272.963135,350.456818 273.439209,349.082458 274.095520,347.800354 
	C279.323425,337.587616 284.682159,327.440704 289.816620,317.181458 
	C299.980804,296.872192 311.007233,277.038544 327.200928,260.873749 
	C336.095856,251.994705 345.974976,243.989288 356.051300,236.446182 
	C362.590942,231.550659 369.920624,232.793945 376.391907,237.884415 
	C377.700714,238.913956 379.076050,239.858978 380.652100,241.479919 
	C381.726227,243.377777 382.800354,245.275635 384.111572,247.742722 
	C384.321533,248.095642 384.531494,248.448563 384.689301,249.541672 
	C385.000580,251.167435 385.311890,252.793182 385.633636,255.288315 
	C385.601227,259.371033 385.568817,263.453735 385.208588,268.179260 
	C382.913177,277.817902 380.617767,287.456573 377.826874,298.066925 
	C378.125641,298.606689 378.424408,299.146454 378.723175,299.686218 
	C379.083374,298.859009 379.443573,298.031799 380.450836,297.188202 
	C381.346344,294.031647 382.241852,290.875122 383.498962,287.090454 
	C383.868927,285.709137 384.238892,284.327789 385.002991,282.503296 
	C385.116058,281.935272 385.229126,281.367218 385.669891,280.114990 
	C386.185608,278.167999 386.701355,276.221039 387.721741,273.771027 
	C388.239685,268.402802 388.757660,263.034607 389.342834,256.790222 
	C388.589996,251.925751 387.837158,247.061279 387.245605,241.584778 
	C386.502594,240.381348 385.759552,239.177917 384.622742,237.436249 
	C372.935303,226.022049 362.748932,224.781708 349.250366,233.732880 
	C343.724152,237.397400 338.547607,241.683380 333.617401,246.135635 
	C315.826630,262.201691 302.730804,281.818420 291.480316,302.778748 
	C283.761993,317.158508 275.825958,331.429230 268.483826,345.998901 
	C265.882111,351.161713 262.480072,353.728241 256.883789,354.392273 
	C249.322052,355.289581 241.701691,356.180664 234.313171,357.941589 
	C221.420593,361.014343 207.890366,363.066376 196.092102,368.644318 
	C182.268631,375.179626 169.860153,384.807922 157.166534,393.570587 
	C153.476105,396.118164 150.911423,400.296478 147.361588,404.194397 
	C144.950851,407.533203 142.217575,410.689392 140.200882,414.251343 
	C136.704636,420.426544 134.033966,435.230377 141.042679,442.539124 
	C141.042679,442.539124 141.403305,442.682312 141.603302,443.139221 
	C141.800919,443.429169 142.070572,443.614105 142.610565,444.149933 
	C142.807007,444.439880 143.075958,444.623718 143.578522,445.120148 
M375.811371,300.493134 
	C367.812775,309.026093 359.814178,317.559052 351.815613,326.092010 
	C363.106964,320.750763 371.805725,312.545715 378.593140,300.724426 
	C378.470398,300.168030 378.347626,299.611633 378.224854,299.055267 
	C377.620056,299.421661 377.015259,299.788086 375.811371,300.493134 
z"/>
<path fill="#F3E6E9" opacity="1.000000" stroke="none" 
	d="
M387.084290,242.196793 
	C387.837158,247.061279 388.589996,251.925751 389.218262,257.669312 
	C388.468140,263.790253 387.842590,269.032166 387.217072,274.274048 
	C386.701355,276.221039 386.185608,278.167999 385.310852,280.558319 
	C384.837463,281.649933 384.723145,282.298187 384.608826,282.946472 
	C384.238892,284.327789 383.868927,285.709137 383.141479,287.185760 
	C383.217194,284.241425 383.658051,281.202850 384.081451,278.161865 
	C384.574463,274.621155 385.052124,271.078369 385.536438,267.536469 
	C385.568817,263.453735 385.601227,259.371033 385.724487,254.478546 
	C385.457397,252.046326 385.099426,250.423904 384.741455,248.801468 
	C384.531494,248.448563 384.321533,248.095642 383.961182,247.107269 
	C382.680786,244.595520 381.550751,242.719238 380.420715,240.842957 
	C379.076050,239.858978 377.700714,238.913956 376.391907,237.884415 
	C369.920624,232.793945 362.590942,231.550659 356.051300,236.446182 
	C345.974976,243.989288 336.095856,251.994705 327.200928,260.873749 
	C311.007233,277.038544 299.980804,296.872192 289.816620,317.181458 
	C284.682159,327.440704 279.323425,337.587616 274.095520,347.800354 
	C273.439209,349.082458 272.963135,350.456818 272.220276,352.224640 
	C274.151306,352.224640 275.581329,352.208252 277.010895,352.227051 
	C305.148071,352.597015 333.304230,352.458832 361.416626,353.499756 
	C385.714264,354.399414 409.550781,359.010773 432.940186,365.741486 
	C434.697632,366.247162 436.525116,366.542328 438.238220,367.161682 
	C441.129913,368.207153 442.936096,367.488495 445.048737,365.012634 
	C452.488312,356.294067 460.478180,348.046814 467.976440,339.376129 
	C481.981873,323.180725 495.658997,306.699982 509.761566,290.590820 
	C513.770142,286.011902 518.777222,282.307129 524.145935,279.049713 
	C501.075745,310.742004 475.137848,339.865723 447.931702,369.391815 
	C459.965057,373.882660 471.181702,378.068726 483.337463,382.605286 
	C477.515778,356.170807 483.135132,333.173798 503.333160,315.346252 
	C523.735291,297.338623 547.169861,294.670746 572.967712,305.097565 
	C572.967712,301.675232 573.208191,298.869812 572.914368,296.121552 
	C572.405823,291.366028 574.674622,289.961151 579.019409,290.025757 
	C591.180176,290.206604 603.343567,290.241241 615.506042,290.263458 
	C634.337708,290.297821 653.169434,290.261810 672.001160,290.282623 
	C677.485962,290.288696 678.766174,291.709259 678.446960,297.097931 
	C678.289612,299.754456 678.136536,302.416656 678.136230,305.076294 
	C678.121155,427.899078 678.123596,550.721863 678.122681,673.544678 
	C678.122620,681.922668 678.117859,681.929810 669.999512,681.930603 
	C640.002075,681.933472 610.004700,681.936646 580.007263,681.926941 
	C573.095337,681.924683 572.969910,681.799072 572.969421,674.958984 
	C572.963745,593.799255 572.965271,512.639587 572.964905,431.479858 
	C572.964905,429.179718 572.964844,426.879608 572.964844,423.702057 
	C559.606689,429.220062 546.530518,431.316284 532.580872,428.475586 
	C532.361145,430.376678 532.445679,431.891113 531.954346,433.187195 
	C531.559753,434.228119 530.467285,435.004517 529.684509,435.898315 
	C529.005981,434.908508 527.618042,433.794952 527.765503,432.949188 
	C528.643616,427.913666 525.559021,426.561523 521.685303,425.002045 
	C507.081665,419.122772 496.107666,408.962738 488.763550,395.116699 
	C486.631561,391.097260 483.725586,388.621674 479.714813,387.113861 
	C469.897339,383.422882 459.955933,380.036804 450.269653,376.031708 
	C445.299255,373.976562 442.447845,375.267517 439.464752,379.405609 
	C433.837189,387.212189 428.114441,395.020874 421.702942,402.176086 
	C410.392487,414.798523 398.862122,427.260040 386.840057,439.201202 
	C361.207184,464.661804 334.821686,489.372681 309.463715,515.099548 
	C288.094727,536.779297 267.816345,559.530884 246.910339,581.671265 
	C234.793167,594.503845 222.327637,607.006775 210.131104,619.765320 
	C195.302628,635.277161 180.613632,650.921631 169.321426,669.348022 
	C166.452652,674.029175 163.848206,678.883484 160.777496,683.425110 
	C159.211075,685.741882 156.880402,687.541931 154.895203,689.575500 
	C154.402359,689.195740 153.909531,688.815979 153.416702,688.436157 
	C155.947037,683.973877 158.399246,679.465027 161.021286,675.057251 
	C172.130386,656.382568 185.703354,639.664307 200.732468,623.986572 
	C224.223648,599.481628 247.338226,574.615723 270.619293,549.909241 
	C277.697083,542.398071 284.692444,534.805481 291.907562,527.428223 
	C313.217194,505.639679 334.504944,483.827576 356.027100,462.249908 
	C368.107208,450.138702 381.054413,438.873230 392.839294,426.492188 
	C404.266907,414.486511 414.779724,401.602936 425.545013,388.977600 
	C429.821686,383.962006 433.696716,378.603882 438.456940,372.501343 
	C428.674316,370.030304 419.766785,367.524902 410.742615,365.553375 
	C391.245239,361.293671 371.594635,358.660187 351.520599,358.761078 
	C324.885071,358.894928 298.245575,358.063477 271.606537,357.953064 
	C268.981232,357.942169 265.572937,359.375458 263.846344,361.313080 
	C254.688461,371.590149 245.963669,382.252594 237.064911,392.761230 
	C231.701828,399.094574 226.487930,405.569000 220.863235,411.662689 
	C212.310379,420.928772 203.774277,430.250214 194.652512,438.940857 
	C183.937149,449.149780 170.562531,452.963165 156.033356,451.576599 
	C152.086609,451.199951 148.400787,448.089294 144.836212,445.532776 
	C145.328995,444.574280 145.580795,444.316406 146.142990,444.241577 
	C149.067398,445.593842 151.644516,447.673859 154.301544,447.781525 
	C169.445801,448.395203 183.122742,443.537476 193.305939,432.522247 
	C215.136856,408.907471 236.141235,384.528595 257.678802,360.255066 
	C257.412994,359.832977 256.952454,359.618469 256.078156,359.466553 
	C248.155685,360.774323 240.645981,362.013306 233.138535,363.265808 
	C200.354126,368.735565 172.019623,382.802185 148.661652,406.379944 
	C148.241699,405.153351 148.036194,404.440308 147.830719,403.727234 
	C150.911423,400.296478 153.476105,396.118164 157.166534,393.570587 
	C169.860153,384.807922 182.268631,375.179626 196.092102,368.644318 
	C207.890366,363.066376 221.420593,361.014343 234.313171,357.941589 
	C241.701691,356.180664 249.322052,355.289581 256.883789,354.392273 
	C262.480072,353.728241 265.882111,351.161713 268.483826,345.998901 
	C275.825958,331.429230 283.761993,317.158508 291.480316,302.778748 
	C302.730804,281.818420 315.826630,262.201691 333.617401,246.135635 
	C338.547607,241.683380 343.724152,237.397400 349.250366,233.732880 
	C362.748932,224.781708 372.935303,226.022049 384.854645,238.009323 
	C385.752472,239.787201 386.418396,240.992004 387.084290,242.196793 
M672.562866,456.500427 
	C672.562866,403.106110 672.562866,349.711823 672.562866,296.228455 
	C640.804077,296.228455 609.918274,296.228455 578.559753,296.228455 
	C578.559753,299.593323 578.255493,302.610565 578.675720,305.523315 
	C578.921326,307.225525 580.025330,309.051147 581.258606,310.320404 
	C586.325500,315.534973 592.174866,320.090118 596.683044,325.729797 
	C618.688538,353.258240 611.596619,397.857635 582.234863,417.581787 
	C579.335632,419.529358 578.496887,421.641266 578.499878,424.937378 
	C578.573669,506.912781 578.590637,588.888306 578.468018,670.863586 
	C578.461487,675.213745 579.569336,676.524780 584.029968,676.490967 
	C611.186890,676.284912 638.346252,676.388672 665.504761,676.387329 
	C672.557617,676.386963 672.562500,676.384094 672.562622,669.437012 
	C672.563721,598.791504 672.563110,528.145996 672.562866,456.500427 
M537.282898,423.658600 
	C552.148132,425.819733 565.835205,422.269562 578.049683,413.990875 
	C602.866699,397.170502 611.082275,363.761383 597.445801,336.992889 
	C583.881958,310.366974 553.599121,298.176880 525.578979,308.236664 
	C499.175751,317.715912 484.771393,344.004669 486.827911,370.396362 
	C487.672882,381.240234 491.280579,390.067505 502.796265,393.494843 
	C503.424835,393.681915 504.016876,394.033600 504.584686,394.376892 
	C515.379395,400.903107 526.781677,406.720703 531.015259,420.142334 
	C531.493347,421.658142 534.574585,422.352814 537.282898,423.658600 
M515.020020,415.612000 
	C517.866333,417.017365 520.712646,418.422699 524.065796,420.078308 
	C522.834351,411.631317 507.014618,398.799744 496.428040,397.192352 
	C501.342834,404.774658 507.089447,410.741547 515.020020,415.612000 
z"/>
<path fill="#E7BEC8" opacity="1.000000" stroke="none" 
	d="
M147.596146,403.960815 
	C148.036194,404.440308 148.241699,405.153351 148.328583,406.323700 
	C148.232178,406.557159 148.254364,406.333344 148.033051,406.250305 
	C147.562683,406.685760 147.335815,406.980438 147.095703,407.171509 
	C147.082443,407.067871 147.289795,407.042175 147.033600,407.301025 
	C146.531784,408.239014 146.286163,408.918213 146.148132,409.933472 
	C140.722260,419.864716 136.544662,429.624603 142.265228,440.860291 
	C141.601196,441.460297 141.240448,441.823639 140.879684,442.187012 
	C134.033966,435.230377 136.704636,420.426544 140.200882,414.251343 
	C142.217575,410.689392 144.950851,407.533203 147.596146,403.960815 
z"/>
<path fill="#EED7DD" opacity="1.000000" stroke="none" 
	d="
M377.951569,301.564240 
	C371.805725,312.545715 363.106964,320.750763 351.815613,326.092010 
	C359.814178,317.559052 367.812775,309.026093 376.493713,300.678955 
	C377.434601,301.097900 377.693085,301.331055 377.951569,301.564240 
z"/>
<path fill="#E1ABB8" opacity="1.000000" stroke="none" 
	d="
M385.372498,267.857849 
	C385.052124,271.078369 384.574463,274.621155 384.081451,278.161865 
	C383.658051,281.202850 383.217194,284.241425 382.960693,287.499817 
	C382.241852,290.875122 381.346344,294.031647 379.755615,297.168701 
	C378.814362,297.131195 378.568359,297.113190 378.322388,297.095215 
	C380.617767,287.456573 382.913177,277.817902 385.372498,267.857849 
z"/>
<path fill="#E1ABB8" opacity="1.000000" stroke="none" 
	d="
M387.469421,274.022522 
	C387.842590,269.032166 388.468140,263.790253 389.184662,258.107361 
	C388.757660,263.034607 388.239685,268.402802 387.469421,274.022522 
z"/>
<path fill="#E1ABB8" opacity="1.000000" stroke="none" 
	d="
M380.536407,241.161438 
	C381.550751,242.719238 382.680786,244.595520 383.842651,246.822647 
	C382.800354,245.275635 381.726227,243.377777 380.536407,241.161438 
z"/>
<path fill="#E1ABB8" opacity="1.000000" stroke="none" 
	d="
M384.715393,249.171570 
	C385.099426,250.423904 385.457397,252.046326 385.719269,254.043854 
	C385.311890,252.793182 385.000580,251.167435 384.715393,249.171570 
z"/>
<path fill="#E1ABB8" opacity="1.000000" stroke="none" 
	d="
M387.164978,241.890778 
	C386.418396,240.992004 385.752472,239.787201 385.051514,238.278442 
	C385.759552,239.177917 386.502594,240.381348 387.164978,241.890778 
z"/>
<path fill="#E1ABB8" opacity="1.000000" stroke="none" 
	d="
M384.805908,282.724884 
	C384.723145,282.298187 384.837463,281.649933 385.146973,280.900421 
	C385.229126,281.367218 385.116058,281.935272 384.805908,282.724884 
z"/>
<path fill="#EED7DD" opacity="1.000000" stroke="none" 
	d="
M378.074646,297.581055 
	C378.568359,297.113190 378.814362,297.131195 379.432068,297.176880 
	C379.443573,298.031799 379.083374,298.859009 378.723175,299.686218 
	C378.424408,299.146454 378.125641,298.606689 378.074646,297.581055 
z"/>
<path fill="#EED7DD" opacity="1.000000" stroke="none" 
	d="
M376.793274,300.509644 
	C377.015259,299.788086 377.620056,299.421661 378.224854,299.055237 
	C378.347626,299.611633 378.470398,300.168030 378.272339,301.144348 
	C377.693085,301.331055 377.434601,301.097900 376.793274,300.509644 
z"/>
<path fill="#F3E6E9" opacity="1.000000" stroke="none" 
	d="
M140.961182,442.363068 
	C141.240448,441.823639 141.601196,441.460297 142.400223,440.949463 
	C142.838486,440.802002 142.901031,441.119446 142.524902,441.508545 
	C141.900269,442.159180 141.651779,442.420746 141.403290,442.682312 
	C141.403305,442.682312 141.042679,442.539124 140.961182,442.363068 
z"/>
<path fill="#F3E6E9" opacity="1.000000" stroke="none" 
	d="
M142.412247,443.694031 
	C142.070572,443.614105 141.800919,443.429169 141.503296,442.910767 
	C141.651779,442.420746 141.900269,442.159180 142.751953,441.596436 
	C143.641098,441.488556 143.813583,441.755219 143.505890,442.493439 
	C142.896866,443.159119 142.654556,443.426575 142.412247,443.694031 
z"/>
<path fill="#F3E6E9" opacity="1.000000" stroke="none" 
	d="
M143.417450,444.701477 
	C143.075958,444.623718 142.807007,444.439880 142.511414,443.921997 
	C142.654556,443.426575 142.896866,443.159119 143.737350,442.585632 
	C144.626450,442.477875 144.804718,442.749939 144.505707,443.495972 
	C143.899857,444.164551 143.658661,444.433014 143.417450,444.701477 
z"/>
<path fill="#F3E6E9" opacity="1.000000" stroke="none" 
	d="
M144.695969,445.215515 
	C144.001328,445.543854 143.755920,445.384277 143.497986,444.910828 
	C143.658661,444.433014 143.899857,444.164551 144.730759,443.581726 
	C145.603180,443.458557 145.773895,443.722260 145.832596,444.058502 
	C145.580795,444.316406 145.328995,444.574280 144.695969,445.215515 
z"/>
<path fill="#BB2749" opacity="1.000000" stroke="none" 
	d="
M672.562988,457.000427 
	C672.563110,528.145996 672.563721,598.791504 672.562622,669.437012 
	C672.562500,676.384094 672.557617,676.386963 665.504761,676.387329 
	C638.346252,676.388672 611.186890,676.284912 584.029968,676.490967 
	C579.569336,676.524780 578.461487,675.213745 578.468018,670.863586 
	C578.590637,588.888306 578.573669,506.912781 578.499878,424.937378 
	C578.496887,421.641266 579.335632,419.529358 582.234863,417.581787 
	C611.596619,397.857635 618.688538,353.258240 596.683044,325.729797 
	C592.174866,320.090118 586.325500,315.534973 581.258606,310.320404 
	C580.025330,309.051147 578.921326,307.225525 578.675720,305.523315 
	C578.255493,302.610565 578.559753,299.593323 578.559753,296.228455 
	C609.918274,296.228455 640.804077,296.228455 672.562866,296.228455 
	C672.562866,349.711823 672.562866,403.106110 672.562988,457.000427 
z"/>
<path fill="#BA2648" opacity="1.000000" stroke="none" 
	d="
M536.865845,423.543427 
	C534.574585,422.352814 531.493347,421.658142 531.015259,420.142334 
	C526.781677,406.720703 515.379395,400.903107 504.584686,394.376892 
	C504.016876,394.033600 503.424835,393.681915 502.796265,393.494843 
	C491.280579,390.067505 487.672882,381.240234 486.827911,370.396362 
	C484.771393,344.004669 499.175751,317.715912 525.578979,308.236664 
	C553.599121,298.176880 583.881958,310.366974 597.445801,336.992889 
	C611.082275,363.761383 602.866699,397.170502 578.049683,413.990875 
	C565.835205,422.269562 552.148132,425.819733 536.865845,423.543427 
z"/>
<path fill="#BB2849" opacity="1.000000" stroke="none" 
	d="
M146.142990,444.241577 
	C145.773895,443.722260 145.603180,443.458557 145.095398,443.181610 
	C144.804718,442.749939 144.626450,442.477875 144.104065,442.187408 
	C143.813583,441.755219 143.641098,441.488556 143.128098,441.207367 
	C142.901031,441.119446 142.838486,440.802002 142.703491,440.712830 
	C136.544662,429.624603 140.722260,419.864716 146.523834,409.732788 
	C146.957886,408.478088 147.123840,407.760132 147.289795,407.042175 
	C147.289795,407.042175 147.082443,407.067871 147.507019,407.303070 
	C148.046585,407.062012 148.161575,406.585754 148.276566,406.109497 
	C148.254364,406.333344 148.232178,406.557159 148.543045,406.837219 
	C172.019623,382.802185 200.354126,368.735565 233.138535,363.265808 
	C240.645981,362.013306 248.155685,360.774323 256.322723,359.734467 
	C257.148743,360.114075 257.316406,360.288330 257.484070,360.462616 
	C236.141235,384.528595 215.136856,408.907471 193.305939,432.522247 
	C183.122742,443.537476 169.445801,448.395203 154.301544,447.781525 
	C151.644516,447.673859 149.067398,445.593842 146.142990,444.241577 
z"/>
<path fill="#BE3554" opacity="1.000000" stroke="none" 
	d="
M514.704956,415.412842 
	C507.089447,410.741547 501.342834,404.774658 496.428040,397.192352 
	C507.014618,398.799744 522.834351,411.631317 524.065796,420.078308 
	C520.712646,418.422699 517.866333,417.017365 514.704956,415.412842 
z"/>
<path fill="#BB2849" opacity="1.000000" stroke="none" 
	d="
M256.736511,359.671875 
	C256.952454,359.618469 257.412994,359.832977 257.678802,360.255066 
	C257.316406,360.288330 257.148743,360.114075 256.736511,359.671875 
z"/>
<path fill="#F3E6E9" opacity="1.000000" stroke="none" 
	d="
M147.033600,407.301025 
	C147.123840,407.760132 146.957886,408.478088 146.416245,409.396729 
	C146.286163,408.918213 146.531784,408.239014 147.033600,407.301025 
z"/>
<path fill="#F3E6E9" opacity="1.000000" stroke="none" 
	d="
M148.033051,406.250305 
	C148.161575,406.585754 148.046585,407.062012 147.520279,407.406677 
	C147.335815,406.980438 147.562683,406.685760 148.033051,406.250305 
z"/>
</svg>